<svg width="1200" height="680" viewBox="0 0 1200 680" fill="none" xmlns="http://www.w3.org/2000/svg">
  <defs>
    <linearGradient id="bg2" x1="0" y1="0" x2="1200" y2="680" gradientUnits="userSpaceOnUse">
      <stop offset="0" stop-color="#0B1220"/>
      <stop offset="1" stop-color="#111827"/>
    </linearGradient>
    <linearGradient id="card" x1="0" y1="0" x2="1" y2="1">
      <stop offset="0" stop-color="#0F172A"/>
      <stop offset="1" stop-color="#111C33"/>
    </linearGradient>
  </defs>

  <rect width="1200" height="680" fill="url(#bg2)"/>

  <rect x="70" y="60" width="1060" height="560" rx="24" fill="url(#card)" stroke="#1F2A44"/>
  <rect x="70" y="60" width="200" height="560" rx="24" fill="#0C1528"/>
  <rect x="70" y="60" width="1060" height="60" rx="24" fill="#101A2F"/>

  <circle cx="105" cy="90" r="6" fill="#F87171"/>
  <circle cx="125" cy="90" r="6" fill="#FBBF24"/>
  <circle cx="145" cy="90" r="6" fill="#34D399"/>

  <rect x="290" y="145" width="360" height="160" rx="16" fill="#0B1324" stroke="#1E2A46"/>
  <rect x="670" y="145" width="420" height="160" rx="16" fill="#0B1324" stroke="#1E2A46"/>
  <rect x="290" y="330" width="800" height="250" rx="16" fill="#0B1324" stroke="#1E2A46"/>

  <g stroke="#38BDF8" stroke-width="2" opacity="0.7">
    <path d="M320 260 L380 220 L430 240 L480 200 L530 230 L600 180" />
  </g>
  <g stroke="#F59E0B" stroke-width="2" opacity="0.7">
    <path d="M700 260 L770 230 L820 250 L890 210 L1020 235" />
  </g>

  <g stroke="#1E293B" stroke-width="1">
    <line x1="320" y1="370" x2="1050" y2="370"/>
    <line x1="320" y1="410" x2="1050" y2="410"/>
    <line x1="320" y1="450" x2="1050" y2="450"/>
    <line x1="320" y1="490" x2="1050" y2="490"/>
    <line x1="320" y1="530" x2="1050" y2="530"/>
  </g>

  <rect x="95" y="140" width="150" height="28" rx="8" fill="#111C33"/>
  <rect x="95" y="185" width="150" height="28" rx="8" fill="#111C33"/>
  <rect x="95" y="230" width="150" height="28" rx="8" fill="#111C33"/>
  <rect x="95" y="275" width="150" height="28" rx="8" fill="#111C33"/>
  <rect x="95" y="320" width="150" height="28" rx="8" fill="#111C33"/>

  <text x="290" y="120" fill="#CBD5F5" font-size="16" font-family="Segoe UI, Arial, sans-serif">Dashboard Preview (mock)</text>
  <text x="290" y="365" fill="#94A3B8" font-size="12" font-family="Segoe UI, Arial, sans-serif">Holdings table</text>
  <text x="290" y="325" fill="#94A3B8" font-size="12" font-family="Segoe UI, Arial, sans-serif">Totals and deltas</text>
</svg>
